<?xml version="1.0" encoding="UTF-8" standalone="no"?>
<svg xmlns="http://www.w3.org/2000/svg" version="1.1" id="Logo green l4nterne" viewBox="0 0 1200 205" width="1200" height="205">

  <path d="M 101.125,202.25 C 45.365,202.25 0,156.886 0,101.125 0,45.364 45.365,0 101.125,0 c 55.76,0 101.125,45.364 101.125,101.125 0,55.761 -45.365,101.125 -101.125,101.125 z"
     style="fill:#000000" />
  <path d="M 101.125,4 C 47.57,4 4,47.57 4,101.125 c 0,53.555 43.57,97.125 97.125,97.125 53.555,0 97.125,-43.57 97.125,-97.125 C 198.25,47.57 154.679,4 101.125,4 Z"
     style="fill:#5fa82f" />
  <path d="m 125.336,182.006 c 0,0 -0.001,0 -0.001,0 -7.62,-0.001 -13.82,-6.218 -13.82,-13.858 V 34.103 c 0,-7.642 6.2,-13.858 13.82,-13.858 1.593,0 3.173,0.279 4.697,0.83 33.607,12.137 56.187,44.307 56.187,80.051 0,35.744 -22.58,67.914 -56.187,80.051 -1.523,0.55 -3.104,0.829 -4.696,0.829 z"
     style="fill:#000000" />
  <path d="m 76.915,182.006 c 0,0 0,0 0,0 -1.593,0 -3.174,-0.279 -4.698,-0.83 C 38.61,169.039 16.03,136.869 16.03,101.125 c 0,-35.744 22.58,-67.914 56.187,-80.051 1.524,-0.551 3.104,-0.83 4.697,-0.83 7.621,0 13.82,6.217 13.82,13.858 v 134.045 c 0,3.764 -1.478,7.279 -4.161,9.897 -2.577,2.519 -6.098,3.962 -9.658,3.962 z"
     style="fill:#000000" />
  <path d="m 125.336,24.244 c -5.415,0 -9.82,4.423 -9.82,9.858 v 134.045 c 0,5.436 4.405,9.857 9.82,9.858 0,0 0,0 0.001,0 1.127,0 2.25,-0.199 3.338,-0.592 32.027,-11.566 53.545,-42.225 53.545,-76.289 0,-34.064 -21.518,-64.723 -53.545,-76.289 -1.087,-0.392 -2.211,-0.591 -3.339,-0.591 z"
     style="fill:#ffffff" />
  <path d="m 76.915,24.244 c -1.128,0 -2.251,0.199 -3.339,0.592 -32.027,11.566 -53.545,42.225 -53.545,76.289 0,34.064 21.518,64.723 53.545,76.289 3.523,1.271 7.545,0.364 10.205,-2.231 1.905,-1.859 2.955,-4.358 2.955,-7.035 V 34.103 C 86.735,28.667 82.33,24.244 76.915,24.244 Z"
     style="fill:#ffffff" />
  <path d="m 57.359,118.244 c -18.628,0 -20.908,-31.205 -20.996,-32.534 -0.048,-0.731 0.308,-1.432 0.928,-1.823 0.621,-0.391 1.407,-0.411 2.045,-0.053 l 35,19.625 c 0.904,0.507 1.271,1.62 0.846,2.565 -0.224,0.499 -5.64,12.22 -17.823,12.22 z"
     style="fill:#000000" />
  <path d="m 149.581,118.214 c -12.183,0 -17.599,-11.721 -17.824,-12.22 -0.425,-0.945 -0.059,-2.059 0.846,-2.565 l 35,-19.625 c 0.64,-0.358 1.425,-0.338 2.045,0.053 0.621,0.392 0.977,1.092 0.928,1.823 -0.087,1.329 -2.367,32.534 -20.995,32.534 z"
     style="fill:#000000" />
  <path d="m 136.915,105.452 c 1.727,2.799 6.028,8.263 13.298,8.263 11.569,0 15.412,-17.185 16.562,-25.006 z"
     style="fill:#000000" />
  <path d="m 41.193,89.452 c 1.149,7.821 4.992,25.006 16.562,25.006 7.269,0 11.57,-5.461 13.298,-8.263 z"
     style="fill:#000000" />
  <g
     style="font-style:normal;font-weight:normal;font-size:40px;line-height:1.25;font-family:sans-serif;letter-spacing:0px;word-spacing:0px;fill:#000000;fill-opacity:1;stroke:none"
     id="text55">
    <path
       d="m 272.97326,129.11863 q -3.2,5.76 -7.808,8.576 -4.608,2.688 -11.52,2.688 -5.248,0 -9.6,-1.664 -4.352,-1.664 -7.424,-5.248 -3.072,-3.584 -4.864,-8.96 -1.664,-5.504 -1.664,-13.056 0,-6.144 1.28,-12.928004 1.28,-6.912 4.608,-12.672 3.456,-5.76 9.344,-9.472 5.888,-3.84 15.104,-3.84 3.84,0 6.528,0.896 2.816,0.768 4.736,2.176 2.048,1.408 3.2,3.328 1.28,1.92 1.92,4.096 0,0.128 0,-0.896 0.128,-1.152 0.256,-2.56 0.128,-1.408 0.128,-2.688 0.128,-1.408 0.128,-1.792 0.128,-1.28 1.664,-1.28 h 5.888 q 6.656,0 9.6,2.816 3.072,2.688 3.072,10.368 0,1.024 -0.128,4.736 -0.128,3.584 -0.512,8.704004 -0.256,5.12 -0.768,11.392 -0.512,6.144 -1.152,12.416 -0.64,6.272 -1.408,12.032 -0.768,5.76 -1.664,10.112 -0.896,4.352 -3.072,8.448 -2.176,4.096 -6.144,7.296 -3.968,3.2 -10.24,5.12 -6.144,1.92 -15.104,1.92 -6.784,0 -11.904,-1.28 -4.992,-1.28 -8.32,-3.456 -3.328,-2.048 -5.12,-4.736 -1.664,-2.688 -1.664,-5.376 0,-2.432 1.024,-4.224 1.024,-1.792 2.688,-2.944 1.664,-1.152 3.584,-1.792 2.048,-0.512 3.84,-0.512 2.176,0 3.2,1.28 1.024,1.28 2.304,2.816 1.28,1.664 3.584,2.944 2.304,1.28 7.168,1.28 8.448,0 11.776,-6.272 3.456,-6.144 3.456,-17.792 z m -10.752,-5.76 q 4.608,0 7.168,-2.176 2.688,-2.176 4.096,-5.248 1.408,-3.072 1.792,-6.4 0.384,-3.328 0.384,-5.76 0,-7.680004 -2.432,-10.880004 -2.304,-3.328 -7.04,-3.328 -4.736,0 -7.424,2.56 -2.688,2.56 -4.096,6.144 -1.28,3.456004 -1.664,7.040004 -0.384,3.456 -0.384,5.376 0,6.4 2.176,9.6 2.176,3.072 7.424,3.072 z"
       style="fill:#b3b3b3"/>
   <path
       d="m 350.21126,104.41463 q -0.768,0 -1.792,0 -0.896,-0.128 -1.792,-0.256 -0.896,-0.256 -1.536,-0.512 -0.64,-0.384 -0.64,-0.896 0,-1.664 0.128,-3.072004 0.128,-1.408 0.128,-2.944 0,-2.816 -0.768,-4.608 -0.768,-1.792 -3.072,-1.792 -3.584,0 -6.016,4.736 -2.304,4.608 -2.944,13.952004 -0.256,4.096 -0.768,9.344 -0.384,5.12 -0.768,9.984 -0.384,4.736 -0.64,8.448 -0.256,3.712 -0.256,4.864 0,1.28 -0.896,1.92 -0.896,0.64 -1.92,0.64 h -4.608 q -3.968,0 -6.528,-0.768 -2.432,-0.896 -3.968,-2.432 -1.408,-1.536 -2.048,-3.712 -0.512,-2.304 -0.512,-5.248 0,-1.92 0.128,-5.376 0.256,-3.584 0.768,-9.728 0.512,-6.272 1.152,-15.744 0.768,-9.600004 1.792,-23.680004 0.256,-3.712 2.688,-3.712 h 4.992 q 3.584,0 6.016,0.768 2.432,0.768 3.968,2.176 1.536,1.28 2.176,3.072 0.768,1.792 1.024,3.712 1.536,-2.944 3.584,-4.992 2.176,-2.176 4.48,-3.456 2.304,-1.408 4.736,-1.92 2.432,-0.64 4.48,-0.64 2.432,0 4.864,0.896 2.56,0.896 4.608,2.688 2.048,1.792 3.2,4.608 1.28,2.816 1.28,6.656 0,3.456 -1.024,6.528 -1.024,3.072 -2.944,5.504 -1.92,2.304004 -4.736,3.712004 -2.688,1.28 -6.016,1.28 z"
       style="fill:#b3b3b3"/>
   <path
       d="m 399.68526,145.50263 q -5.632,0 -11.264,-1.408 -5.504,-1.408 -9.984,-4.864 -4.352,-3.456 -7.168,-9.216 -2.816,-5.76 -2.816,-14.464 0,-3.2 0.512,-7.68 0.512,-4.48 1.92,-9.216004 1.536,-4.736 4.096,-9.344 2.688,-4.736 6.912,-8.448 4.224,-3.712 10.24,-6.016 6.016,-2.304 14.336,-2.304 6.656,0 11.264,1.536 4.608,1.536 7.424,4.224 2.816,2.56 4.096,6.016 1.28,3.456 1.28,7.424 0,5.888 -2.432,9.984004 -2.304,4.096 -6.144,6.912 -3.712,2.688 -8.32,4.224 -4.608,1.536 -9.088,2.432 -4.48,0.768 -8.32,1.024 -3.712,0.128 -5.76,0.128 0,2.432 0.64,4.864 0.768,2.304 2.176,4.096 1.408,1.792 3.712,2.944 2.304,1.152 5.632,1.152 3.328,0 5.12,-1.024 1.92,-1.152 3.072,-2.432 1.152,-1.408 1.92,-2.432 0.896,-1.152 2.304,-1.152 0.64,0 2.176,0.384 1.664,0.256 3.328,1.28 1.664,1.024 2.944,2.816 1.28,1.792 1.28,4.608 0,3.712 -2.304,6.4 -2.304,2.688 -6.016,4.352 -3.584,1.664 -8.064,2.432 -4.48,0.768 -8.704,0.768 z m 2.432,-55.936004 q -2.816,0 -4.864,1.664 -1.92,1.536 -3.328,3.968 -1.28,2.432 -2.048,5.376004 -0.64,2.944 -1.024,5.632 7.936,-0.128 12.8,-2.688 4.992,-2.56 4.992,-7.296004 0,-2.56 -1.664,-4.608 -1.536,-2.048 -4.864,-2.048 z"
       style="fill:#b3b3b3"/>
   <path
       d="m 467.68526,145.50263 q -5.632,0 -11.264,-1.408 -5.504,-1.408 -9.984,-4.864 -4.352,-3.456 -7.168,-9.216 -2.816,-5.76 -2.816,-14.464 0,-3.2 0.512,-7.68 0.512,-4.48 1.92,-9.216004 1.536,-4.736 4.096,-9.344 2.688,-4.736 6.912,-8.448 4.224,-3.712 10.24,-6.016 6.016,-2.304 14.336,-2.304 6.656,0 11.264,1.536 4.608,1.536 7.424,4.224 2.816,2.56 4.096,6.016 1.28,3.456 1.28,7.424 0,5.888 -2.432,9.984004 -2.304,4.096 -6.144,6.912 -3.712,2.688 -8.32,4.224 -4.608,1.536 -9.088,2.432 -4.48,0.768 -8.32,1.024 -3.712,0.128 -5.76,0.128 0,2.432 0.64,4.864 0.768,2.304 2.176,4.096 1.408,1.792 3.712,2.944 2.304,1.152 5.632,1.152 3.328,0 5.12,-1.024 1.92,-1.152 3.072,-2.432 1.152,-1.408 1.92,-2.432 0.896,-1.152 2.304,-1.152 0.64,0 2.176,0.384 1.664,0.256 3.328,1.28 1.664,1.024 2.944,2.816 1.28,1.792 1.28,4.608 0,3.712 -2.304,6.4 -2.304,2.688 -6.016,4.352 -3.584,1.664 -8.064,2.432 -4.48,0.768 -8.704,0.768 z m 2.432,-55.936004 q -2.816,0 -4.864,1.664 -1.92,1.536 -3.328,3.968 -1.28,2.432 -2.048,5.376004 -0.64,2.944 -1.024,5.632 7.936,-0.128 12.8,-2.688 4.992,-2.56 4.992,-7.296004 0,-2.56 -1.664,-4.608 -1.536,-2.048 -4.864,-2.048 z"
       style="fill:#b3b3b3"/>
   <path
       d="m 549.76526,132.95863 q 0,-2.816 0.384,-7.296 0.512,-4.608 0.896,-9.6 0.512,-5.12 0.896,-9.856 0.512,-4.736 0.512,-7.936004 0,-3.328 -1.664,-5.888 -1.536,-2.688 -6.144,-2.688 -4.48,0 -7.424,2.176 -2.944,2.176 -4.992,7.936 -1.92,5.760004 -3.2,15.872004 -1.28,10.112 -2.432,25.984 -0.128,1.536 -0.64,2.048 -0.512,0.512 -2.176,0.512 h -4.608 q -3.968,0 -6.528,-0.768 -2.432,-0.896 -3.968,-2.432 -1.408,-1.536 -2.048,-3.712 -0.512,-2.304 -0.512,-5.248 0,-1.92 0.128,-5.376 0.256,-3.584 0.768,-9.728 0.512,-6.272 1.152,-15.744 0.768,-9.600004 1.792,-23.680004 0.128,-2.816 0.64,-3.328 0.384,-0.384 2.048,-0.384 h 4.992 q 3.84,0 6.272,0.896 2.56,0.896 4.096,2.432 1.536,1.408 2.176,3.456 0.64,1.92 0.768,3.968 3.968,-6.784 9.088,-9.344 5.12,-2.688 12.8,-2.688 5.376,0 9.344,1.152 3.968,1.152 6.528,3.968 2.688,2.688 3.968,7.168 1.28,4.352 1.28,10.88 0,2.048 -0.256,5.888004 -0.256,3.84 -0.64,8.448 -0.384,4.48 -0.896,9.472 -0.384,4.864 -0.768,9.088 -0.384,4.224 -0.64,7.424 -0.256,3.2 -0.256,4.224 0,2.816 -0.64,3.456 -0.64,0.512 -2.816,0.512 h -4.096 q -4.096,0 -6.656,-0.768 -2.56,-0.768 -3.968,-2.176 -1.408,-1.408 -2.048,-3.456 -0.512,-2.176 -0.512,-4.864 z"
       style="fill:#b3b3b3"/>
   <path
       d="m 627.71526,145.37463 q -7.936,0 -11.392,-4.224 -3.456,-4.224 -3.456,-13.952 0,-1.536 0.128,-3.84 0.256,-2.304 0.512,-5.888 0.384,-3.712 0.896,-9.088 0.512,-5.376 1.024,-13.056004 0.64,-7.68 1.28,-18.048 0.768,-10.368 1.536,-24.064 0.128,-2.816 0.64,-3.328 0.384,-0.384 2.048,-0.384 h 4.992 q 3.84,0 6.4,0.896 2.56,0.896 4.096,2.432 1.536,1.536 2.176,3.584 0.64,1.92 0.64,4.096 0,2.56 -0.384,7.424 -0.256,4.736 -0.768,10.752 -0.512,6.016 -1.024,12.544 -0.512,6.528 -1.024,12.544004 -0.512,5.888 -0.896,10.624 -0.256,4.736 -0.256,7.168 0,3.328 1.152,4.736 1.28,1.408 2.688,2.048 1.408,0.512 2.56,0.768 1.28,0.128 1.28,0.768 0,2.816 -0.64,5.632 -0.64,2.688 -2.304,4.992 -1.664,2.176 -4.608,3.584 -2.816,1.28 -7.296,1.28 z"
       style="fill:#000000"/>
   <path
       d="m 832.76526,132.95863 q 0,-2.816 0.384,-7.296 0.512,-4.608 0.896,-9.6 0.512,-5.12 0.896,-9.856 0.512,-4.736 0.512,-7.936004 0,-3.328 -1.664,-5.888 -1.536,-2.688 -6.144,-2.688 -4.48,0 -7.424,2.176 -2.944,2.176 -4.992,7.936 -1.92,5.760004 -3.2,15.872004 -1.28,10.112 -2.432,25.984 -0.128,1.536 -0.64,2.048 -0.512,0.512 -2.176,0.512 h -4.608 q -3.968,0 -6.528,-0.768 -2.432,-0.896 -3.968,-2.432 -1.408,-1.536 -2.048,-3.712 -0.512,-2.304 -0.512,-5.248 0,-1.92 0.128,-5.376 0.256,-3.584 0.768,-9.728 0.512,-6.272 1.152,-15.744 0.768,-9.600004 1.792,-23.680004 0.128,-2.816 0.64,-3.328 0.384,-0.384 2.048,-0.384 h 4.992 q 3.84,0 6.272,0.896 2.56,0.896 4.096,2.432 1.536,1.408 2.176,3.456 0.64,1.92 0.768,3.968 3.968,-6.784 9.088,-9.344 5.12,-2.688 12.8,-2.688 5.376,0 9.344,1.152 3.968,1.152 6.528,3.968 2.688,2.688 3.968,7.168 1.28,4.352 1.28,10.88 0,2.048 -0.256,5.888004 -0.256,3.84 -0.64,8.448 -0.384,4.48 -0.896,9.472 -0.384,4.864 -0.768,9.088 -0.384,4.224 -0.64,7.424 -0.256,3.2 -0.256,4.224 0,2.816 -0.64,3.456 -0.64,0.512 -2.816,0.512 h -4.096 q -4.096,0 -6.656,-0.768 -2.56,-0.768 -3.968,-2.176 -1.408,-1.408 -2.048,-3.456 -0.512,-2.176 -0.512,-4.864 z"
       style="fill:#000000"/>
   <path
       d="m 895.88726,91.102626 q -0.384,4.864 -0.896,9.600004 -0.384,4.736 -0.768,8.96 -0.384,4.224 -0.64,7.552 -0.128,3.328 -0.128,5.12 0,3.328 0.768,4.48 0.768,1.024 2.56,1.024 1.408,0 2.432,-0.512 1.024,-0.512 1.92,-1.152 0.896,-0.64 1.536,-1.152 0.768,-0.512 1.664,-0.512 0.896,0 1.664,1.024 0.768,1.024 0.768,4.736 0,7.04 -3.84,11.136 -3.84,4.096 -13.184,4.096 -9.216,0 -13.696,-4.224 -4.352,-4.352 -4.352,-13.184 0,-1.92 0.128,-4.48 0.256,-2.688 0.64,-6.912 0.384,-4.224 0.896,-10.368 0.64,-6.144 1.28,-15.232004 h -6.784 q -1.024,0 -1.28,-0.384 -0.128,-0.512 -0.128,-1.408 l 0.384,-6.528 q 0.128,-1.664 0.384,-3.2 0.384,-1.664 1.28,-2.944 1.024,-1.28 2.816,-2.048 1.792,-0.768 4.736,-0.768 0.896,-2.304 2.048,-5.504 1.152,-3.2 2.304,-6.144 1.152,-3.072 2.176,-5.12 1.152,-2.048 2.048,-2.048 h 3.712 q 5.376,0 7.424,3.328 2.048,3.328 2.048,7.936 0,2.56 -0.384,7.552 h 13.44 q 2.048,0 2.048,1.792 l -0.512,6.912 q -0.256,3.84 -2.176,6.272 -1.792,2.304 -7.552,2.304 z"
       style="fill:#000000"/>
   <path
       d="m 947.93526,145.50263 q -5.632,0 -11.264,-1.408 -5.504,-1.408 -9.984,-4.864 -4.352,-3.456 -7.168,-9.216 -2.816,-5.76 -2.816,-14.464 0,-3.2 0.512,-7.68 0.512,-4.48 1.92,-9.216004 1.536,-4.736 4.096,-9.344 2.688,-4.736 6.912,-8.448 4.224,-3.712 10.24,-6.016 6.016,-2.304 14.336,-2.304 6.656,0 11.264,1.536 4.608,1.536 7.424,4.224 2.816,2.56 4.096,6.016 1.28,3.456 1.28,7.424 0,5.888 -2.432,9.984004 -2.304,4.096 -6.144,6.912 -3.712,2.688 -8.32,4.224 -4.608,1.536 -9.088,2.432 -4.48,0.768 -8.32,1.024 -3.712,0.128 -5.76,0.128 0,2.432 0.64,4.864 0.768,2.304 2.176,4.096 1.408,1.792 3.712,2.944 2.304,1.152 5.632,1.152 3.328,0 5.12,-1.024 1.92,-1.152 3.072,-2.432 1.152,-1.408 1.92,-2.432 0.896,-1.152 2.304,-1.152 0.64,0 2.176,0.384 1.664,0.256 3.328,1.28 1.664,1.024 2.944,2.816 1.28,1.792 1.28,4.608 0,3.712 -2.304,6.4 -2.304,2.688 -6.016,4.352 -3.584,1.664 -8.064,2.432 -4.48,0.768 -8.704,0.768 z m 2.432,-55.936004 q -2.816,0 -4.864,1.664 -1.92,1.536 -3.328,3.968 -1.28,2.432 -2.048,5.376004 -0.64,2.944 -1.024,5.632 7.936,-0.128 12.8,-2.688 4.992,-2.56 4.992,-7.296004 0,-2.56 -1.664,-4.608 -1.536,-2.048 -4.864,-2.048 z"
       style="fill:#000000"/>
   <path
       d="m 1027.7113,104.41463 q -0.768,0 -1.792,0 -0.896,-0.128 -1.792,-0.256 -0.896,-0.256 -1.536,-0.512 -0.64,-0.384 -0.64,-0.896 0,-1.664 0.128,-3.072004 0.128,-1.408 0.128,-2.944 0,-2.816 -0.768,-4.608 -0.768,-1.792 -3.072,-1.792 -3.584,0 -6.016,4.736 -2.304,4.608 -2.944,13.952004 -0.256,4.096 -0.768,9.344 -0.384,5.12 -0.768,9.984 -0.384,4.736 -0.64,8.448 -0.256,3.712 -0.256,4.864 0,1.28 -0.896,1.92 -0.896,0.64 -1.92,0.64 h -4.60804 q -3.968,0 -6.528,-0.768 -2.432,-0.896 -3.968,-2.432 -1.408,-1.536 -2.048,-3.712 -0.512,-2.304 -0.512,-5.248 0,-1.92 0.128,-5.376 0.256,-3.584 0.768,-9.728 0.512,-6.272 1.152,-15.744 0.768,-9.600004 1.792,-23.680004 0.256,-3.712 2.688,-3.712 h 4.992 q 3.58404,0 6.01604,0.768 2.432,0.768 3.968,2.176 1.536,1.28 2.176,3.072 0.768,1.792 1.024,3.712 1.536,-2.944 3.584,-4.992 2.176,-2.176 4.48,-3.456 2.304,-1.408 4.736,-1.92 2.432,-0.64 4.48,-0.64 2.432,0 4.864,0.896 2.56,0.896 4.608,2.688 2.048,1.792 3.2,4.608 1.28,2.816 1.28,6.656 0,3.456 -1.024,6.528 -1.024,3.072 -2.944,5.504 -1.92,2.304004 -4.736,3.712004 -2.688,1.28 -6.016,1.28 z"
       style="fill:#000000"/>
   <path
       d="m 1091.2653,132.95863 q 0,-2.816 0.384,-7.296 0.512,-4.608 0.896,-9.6 0.512,-5.12 0.896,-9.856 0.512,-4.736 0.512,-7.936004 0,-3.328 -1.664,-5.888 -1.536,-2.688 -6.144,-2.688 -4.48,0 -7.424,2.176 -2.944,2.176 -4.992,7.936 -1.92,5.760004 -3.2,15.872004 -1.28,10.112 -2.432,25.984 -0.128,1.536 -0.64,2.048 -0.512,0.512 -2.176,0.512 h -4.608 q -3.968,0 -6.528,-0.768 -2.432,-0.896 -3.968,-2.432 -1.408,-1.536 -2.048,-3.712 -0.512,-2.304 -0.512,-5.248 0,-1.92 0.128,-5.376 0.256,-3.584 0.768,-9.728 0.512,-6.272 1.152,-15.744 0.768,-9.600004 1.792,-23.680004 0.128,-2.816 0.64,-3.328 0.384,-0.384 2.048,-0.384 h 4.992 q 3.84,0 6.272,0.896 2.56,0.896 4.096,2.432 1.536,1.408 2.176,3.456 0.64,1.92 0.768,3.968 3.968,-6.784 9.088,-9.344 5.12,-2.688 12.8,-2.688 5.376,0 9.344,1.152 3.968,1.152 6.528,3.968 2.688,2.688 3.968,7.168 1.28,4.352 1.28,10.88 0,2.048 -0.256,5.888004 -0.256,3.84 -0.64,8.448 -0.384,4.48 -0.896,9.472 -0.384,4.864 -0.768,9.088 -0.384,4.224 -0.64,7.424 -0.256,3.2 -0.256,4.224 0,2.816 -0.64,3.456 -0.64,0.512 -2.816,0.512 h -4.096 q -4.096,0 -6.656,-0.768 -2.56,-0.768 -3.968,-2.176 -1.408,-1.408 -2.048,-3.456 -0.512,-2.176 -0.512,-4.864 z"
       style="fill:#000000"/>
   <path
       d="m 1156.4353,145.50263 q -5.632,0 -11.264,-1.408 -5.504,-1.408 -9.984,-4.864 -4.352,-3.456 -7.168,-9.216 -2.816,-5.76 -2.816,-14.464 0,-3.2 0.512,-7.68 0.512,-4.48 1.92,-9.216004 1.536,-4.736 4.096,-9.344 2.688,-4.736 6.912,-8.448 4.224,-3.712 10.24,-6.016 6.016,-2.304 14.336,-2.304 6.656,0 11.264,1.536 4.608,1.536 7.424,4.224 2.816,2.56 4.096,6.016 1.28,3.456 1.28,7.424 0,5.888 -2.432,9.984004 -2.304,4.096 -6.144,6.912 -3.712,2.688 -8.32,4.224 -4.608,1.536 -9.088,2.432 -4.48,0.768 -8.32,1.024 -3.712,0.128 -5.76,0.128 0,2.432 0.64,4.864 0.768,2.304 2.176,4.096 1.408,1.792 3.712,2.944 2.304,1.152 5.632,1.152 3.328,0 5.12,-1.024 1.92,-1.152 3.072,-2.432 1.152,-1.408 1.92,-2.432 0.896,-1.152 2.304,-1.152 0.64,0 2.176,0.384 1.664,0.256 3.328,1.28 1.664,1.024 2.944,2.816 1.28,1.792 1.28,4.608 0,3.712 -2.304,6.4 -2.304,2.688 -6.016,4.352 -3.584,1.664 -8.064,2.432 -4.48,0.768 -8.704,0.768 z m 2.432,-55.936004 q -2.816,0 -4.864,1.664 -1.92,1.536 -3.328,3.968 -1.28,2.432 -2.048,5.376004 -0.64,2.944 -1.024,5.632 7.936,-0.128 12.8,-2.688 4.992,-2.56 4.992,-7.296004 0,-2.56 -1.664,-4.608 -1.536,-2.048 -4.864,-2.048 z"
       style="fill:#000000"/>
   </g>
  <path
     style="fill:#5fa82f;"
     d="m 715.37275,176.40397 c 0.27248,-0.31421 0.89962,-1.29129 1.39365,-2.17129 0.49403,-0.88 1.9023,-3.328 3.12948,-5.44 3.21405,-5.53141 4.30835,-7.43817 7.25417,-12.64 1.44521,-2.552 2.758,-4.7768 2.9173,-4.944 0.1593,-0.1672 0.28964,-0.56988 0.28964,-0.89483 0,-0.32496 -3.312,-6.34369 -7.36,-13.37497 -4.048,-7.03127 -7.36,-13.0006 -7.36,-13.26517 0,-0.42467 3.56314,-0.48104 30.41004,-0.48104 26.45109,0 30.43353,-0.0612 30.59044,-0.47009 0.16592,-0.43239 -2.02042,-4.37701 -12.68696,-22.889904 -3.14872,-5.46494 -20.82181,-36.1514 -33.26542,-57.76001 -2.33109,-4.048 -6.76089,-11.752 -9.84398,-17.12 -3.08309,-5.368 -5.66272,-9.82343 -5.7325,-9.90095 -0.27055,-0.30059 -1.11598,0.97489 -4.12342,6.22095 -1.71525,2.992 -5.05697,8.80649 -7.42606,12.92109 -3.96332,6.88345 -4.27764,7.54649 -3.93447,8.29966 0.36223,0.795 8.97097,15.8024 14.26009,24.85925 1.43896,2.464 4.38692,7.576 6.55102,11.36 2.16411,3.784 4.90198,8.536 6.08414,10.56 2.50946,4.29647 3.19708,5.60137 3.19708,6.06722 0,0.23508 -4.68348,0.31352 -15.27957,0.25589 l -15.27956,-0.0831 -7.68044,-13.34121 c -5.27047,-9.15499 -7.88126,-13.39593 -8.32044,-13.51563 -0.352,-0.0959 -7.12847,-0.1764 -15.05884,-0.1788 -11.16045,-0.003 -14.54449,0.0875 -14.97489,0.40224 -0.50731,0.37094 -0.089,1.21967 4.77086,9.68 9.33321,16.24776 9.74287,16.98515 9.74287,17.5371 0,0.29806 -3.32511,6.306634 -7.38914,13.352394 -4.22889,7.33154 -7.31255,13.01006 -7.21005,13.27718 0.15346,0.3999 2.35605,0.46672 15.38513,0.46672 h 15.20603 l 0.75296,1.2 c 0.74411,1.1859 11.61032,20.13921 18.30022,31.92001 9.61248,16.92742 11.10038,19.49092 11.66139,20.09129 0.51243,0.54839 0.55369,0.54839 1.02923,0 z"
     />
</svg>
